<svg xmlns="http://www.w3.org/2000/svg" xmlns:xlink="http://www.w3.org/1999/xlink" viewBox="0 0 34 70" version="1.1" x="0px" y="0px"><title>Leisure - Solid - 006 - Chess Piece</title><desc>Created with Sketch.</desc><g stroke="none" stroke-width="1" fill="none" fill-rule="evenodd"><g fill-rule="nonzero" fill="#000000"><path d="M10,10.47021 C10.2074092,9.14321555 10.7201201,7.88250824 11.49774,6.78741 C11.9937995,8.43094876 13.0334453,9.85723331 14.44629,10.83251 C14.7437125,11.0326502 15.1255231,11.0582398 15.4469931,10.8995789 C15.7684631,10.740918 15.9803868,10.422292 16.0024325,10.0644789 C16.0244782,9.70666574 15.8532716,9.36443413 15.55371,9.16751 C14.0813084,8.03148247 13.1654243,6.31967567 13.03735,4.46438 C13.93792,3.20223 15.00128,1.82852 16.24511,0.35403 C16.4346458,0.134634855 16.7102964,0.00861170661 17.000224,0.00880374088 C17.2901516,0.00899577515 17.565635,0.135383968 17.75488,0.35503 C21.665,4.98926 24,8.77051 24,10.47021 C23.9651947,12.7733422 22.7021294,14.8822545 20.68811,16 L13.31189,16 C11.2978706,14.8822545 10.0348053,12.7733422 10,10.47021 Z M8,20 L8,19 C8.00055123,18.4479437 8.44794374,18.0005512 9,18 L25,18 C25.5520563,18.0005512 25.9994488,18.4479437 26,19 L26,20 C25.9994488,20.5520563 25.5520563,20.9994488 25,21 L9,21 C8.44794374,20.9994488 8.00055123,20.5520563 8,20 Z M12,23 L22,23 L22,34 L12,34 L12,23 Z M8,37 C8.00055123,36.4479437 8.44794374,36.0005512 9,36 L25,36 C25.5520563,36.0005512 25.9994488,36.4479437 26,37 L26,39 C25.9994488,39.5520563 25.5520563,39.9994488 25,40 L9,40 C8.44794374,39.9994488 8.00055123,39.5520563 8,39 L8,37 Z M3.06738,46.4751 C2.8676986,45.9755591 2.87767529,45.4166392 3.09505735,44.9245429 C3.31243941,44.4324466 3.71889594,44.0486704 4.22265,43.85987 L9.18231,42 L24.81769,42 L29.77735,43.85986 C30.2811041,44.0486604 30.6875606,44.4324366 30.9049426,44.9245329 C31.1223247,45.4166292 31.1323014,45.9755491 30.93262,46.47509 L30.32263,48 L3.67737,48 L3.06738,46.4751 Z M34,55 C33.9994488,55.5520563 33.5520563,55.9994488 33,56 L32,56 L32,54 C32,53.4477153 31.5522847,53 31,53 C30.4477153,53 30,53.4477153 30,54 L30,56 L28,56 L28,54 C28,53.4477153 27.5522847,53 27,53 C26.4477153,53 26,53.4477153 26,54 L26,56 L24,56 L24,54 C24,53.4477153 23.5522847,53 23,53 C22.4477153,53 22,53.4477153 22,54 L22,56 L20,56 L20,54 C20,53.4477153 19.5522847,53 19,53 C18.4477153,53 18,53.4477153 18,54 L18,56 L16,56 L16,54 C16,53.4477153 15.5522847,53 15,53 C14.4477153,53 14,53.4477153 14,54 L14,56 L12,56 L12,54 C12,53.4477153 11.5522847,53 11,53 C10.4477153,53 10,53.4477153 10,54 L10,56 L8,56 L8,54 C8,53.4477153 7.55228475,53 7,53 C6.44771525,53 6,53.4477153 6,54 L6,56 L4,56 L4,54 C4,53.4477153 3.55228475,53 3,53 C2.44771525,53 2,53.4477153 2,54 L2,56 L1,56 C0.447943738,55.9994488 0.00055122983,55.5520563 0,55 L0,51 C0.00055122983,50.4479437 0.447943738,50.0005512 1,50 L2.9967,50 L3,50.00049 L3.0025,50 L30.9975,50 L31,50.00049 L31.0033,50 L33,50 C33.5520563,50.0005512 33.9994488,50.4479437 34,51 L34,55 Z"/></g></g>
</svg>