<svg xmlns="http://www.w3.org/2000/svg" xmlns:xlink="http://www.w3.org/1999/xlink" viewBox="0 0 34 72.5" version="1.1" x="0px" y="0px"><title>Leisure - Solid - 007 - Chess Piece</title><desc>Created with Sketch.</desc><g stroke="none" stroke-width="1" fill="none" fill-rule="evenodd"><g fill-rule="nonzero" fill="#000000"><path d="M10.07227,10.91406 C9.97027386,10.6845935 9.97672762,10.4214505 10.08985,10.19726 C10.2445204,9.90379223 10.5194475,9.69233792 10.84278,9.61816 L17,8.03271 L23.15723,9.61816 C23.4805625,9.69233792 23.7554896,9.90379223 23.91016,10.19726 C24.0232824,10.4214505 24.0297361,10.6845935 23.92774,10.91406 L23.92774,10.91455 L22.16309,15 L11.83691,15 L10.07227,10.91406 Z M8,18 C8.00055123,17.4479437 8.44794374,17.0005512 9,17 L25,17 C25.5522847,17 26,17.4477153 26,18 C26,18.5522847 25.5522847,19 25,19 L9,19 C8.44794374,18.9994488 8.00055123,18.5520563 8,18 L8,18 Z M12,21 L22,21 L22,38 L12,38 L12,21 Z M9,40 L25,40 C25.5522847,40 26,40.4477153 26,41 C26,41.5522847 25.5522847,42 25,42 L9,42 C8.44771525,42 8,41.5522847 8,41 C8,40.4477153 8.44771525,40 9,40 Z M3.06738,48.4751 C2.8676986,47.9755591 2.87767529,47.4166392 3.09505735,46.9245429 C3.31243941,46.4324466 3.71889594,46.0486704 4.22265,45.85987 L9.18231,44 L24.81769,44 L29.77735,45.85986 C30.2811041,46.0486604 30.6875606,46.4324366 30.9049426,46.9245329 C31.1223247,47.4166292 31.1323014,47.9755491 30.93262,48.47509 L30.32263,50 L3.67737,50 L3.06738,48.4751 Z M34,57 C33.9994488,57.5520563 33.5520563,57.9994488 33,58 L32,58 L32,56 C32,55.4477153 31.5522847,55 31,55 C30.4477153,55 30,55.4477153 30,56 L30,58 L28,58 L28,56 C28,55.4477153 27.5522847,55 27,55 C26.4477153,55 26,55.4477153 26,56 L26,58 L24,58 L24,56 C24,55.4477153 23.5522847,55 23,55 C22.4477153,55 22,55.4477153 22,56 L22,58 L20,58 L20,56 C20,55.4477153 19.5522847,55 19,55 C18.4477153,55 18,55.4477153 18,56 L18,58 L16,58 L16,56 C16,55.4477153 15.5522847,55 15,55 C14.4477153,55 14,55.4477153 14,56 L14,58 L12,58 L12,56 C12,55.4477153 11.5522847,55 11,55 C10.4477153,55 10,55.4477153 10,56 L10,58 L8,58 L8,56 C8,55.4477153 7.55228475,55 7,55 C6.44771525,55 6,55.4477153 6,56 L6,58 L4,58 L4,56 C4,55.4477153 3.55228475,55 3,55 C2.44771525,55 2,55.4477153 2,56 L2,58 L1,58 C0.447943738,57.9994488 0.00055122983,57.5520563 0,57 L0,53 C0.00055122983,52.4479437 0.447943738,52.0005512 1,52 L2.9967,52 L3,52.00049 L3.0025,52 L30.9975,52 L31,52.00049 L31.0033,52 L33,52 C33.5520563,52.0005512 33.9994488,52.4479437 34,53 L34,57 Z"/><path d="M16,7.2 L16,1 C16,0.44771525 16.4477153,1.01453063e-16 17,0 C17.5522847,-1.01453063e-16 18,0.44771525 18,1 L18,7.2 L17,7 L16,7.2 Z"/><path d="M19,4 L15,4 C14.4477153,4 14,3.55228475 14,3 C14,2.44771525 14.4477153,2 15,2 L19,2 C19.5522847,2 20,2.44771525 20,3 C20,3.55228475 19.5522847,4 19,4 Z"/></g></g>
</svg>