<svg xmlns="http://www.w3.org/2000/svg" xmlns:xlink="http://www.w3.org/1999/xlink" viewBox="0 0 34 71.25" version="1.1" x="0px" y="0px"><title>Leisure - Solid - 036 - Chess Piece</title><desc>Created with Sketch.</desc><g stroke="none" stroke-width="1" fill="none" fill-rule="evenodd"><g fill-rule="nonzero" fill="#000000"><path d="M9,41.00146 C8.44794374,41.0009088 8.00055123,40.5535163 8,40.00146 L8,38.00146 C8.00055123,37.4494037 8.44794374,37.0020112 9,37.00146 L25,37.00146 C25.5520563,37.0020112 25.9994488,37.4494037 26,38.00146 L26,40.00146 C25.9994488,40.5535163 25.5520563,41.0009088 25,41.00146 L9,41.00146 Z M29.05469,33.9043 C28.7044682,34.5937246 27.9888376,35.0201368 27.21582,35 L20.56091,35 C20.59857,34.958 20.64019,34.92065 20.67675,34.87744 C21.8175896,33.532496 22.3074419,31.7529887 22.01562,30.01367 L20.60681,21.5592 L28.85058,32.08545 C29.2735714,32.5974908 29.3536678,33.3112403 29.05469,33.9043 L29.05469,33.9043 Z M5.123,9.57275 C6.38478748,7.68381035 8.25778667,6.28624606 10.4278,5.6145 C7.21370984,8.97345468 5.11802235,13.2448686 4.42841,17.84241 C3.60577,14.49261 3.82111,11.71368 5.123,9.57275 Z M6.02046,22.46692 C6.18916,12.75928 10.77803,7.7608 13.1338,5.83838 C13.1218,6.09538 13.11323,6.35738 13.11323,6.63138 C13.11323,7.18366475 13.5609453,7.63138 14.11323,7.63138 C14.6655147,7.63138 15.11323,7.18366475 15.11323,6.63138 C15.042335,4.84557205 15.4410131,3.07239676 16.26948,1.4888 C16.4610462,1.17701694 16.8041039,0.990789527 17.16992,1 L20.14062,0.94727 L20.14062,3.2041 C20.148155,3.95635104 20.5868075,4.63749464 21.26855,4.95556 L23.9121,6.20312 C25.6454427,7.01484624 27.2063792,8.15255706 28.50976,9.55419 L31.60156,12.88964 C32.2533336,13.5963588 32.2163546,14.6956109 31.51856,15.35693 L30.0293,16.72754 L27.6963,15.25879 C26.30763,14.38579 23.90919,13.77686 20.56739,13.44824 C19.368618,13.3232322 18.2100052,13.9217217 17.61817,14.97168 C17.065009,15.9613465 17.1669664,17.1875517 17.87598,18.07227 L18.03138,18.2707 L20.043,30.34277 C20.2375041,31.5022135 19.9109354,32.6884349 19.15042,33.58496 C18.3643847,34.5035696 17.2087943,35.0226136 16,35 L8.08984,35 C7.02680675,35.0434337 6.1281397,34.2204537 6.07812,33.15771 L6.07812,22.73682 C6.07161852,22.6446039 6.05222663,22.5537539 6.02051,22.46692 L6.02046,22.46692 Z M3.06738,47.47607 C2.86776521,46.9765922 2.87777929,46.4177595 3.0951611,45.9257541 C3.31254292,45.4337487 3.71896175,45.0500588 4.22265,44.86132 L9.18231,43.00146 L24.81769,43.00146 L29.77735,44.86132 C30.2811041,45.0501204 30.6875606,45.4338966 30.9049426,45.9259929 C31.1223247,46.4180892 31.1323014,46.9770091 30.93262,47.47655 L30.32282,49.00145 L3.67725,49.00145 L3.06738,47.47607 Z M34,56.00146 C33.9994488,56.5535163 33.5520563,57.0009088 33,57.00146 L32,57.00146 L32,55.00146 C32,54.4491753 31.5522847,54.00146 31,54.00146 C30.4477153,54.00146 30,54.4491753 30,55.00146 L30,57.00146 L28,57.00146 L28,55.00146 C28,54.4491753 27.5522847,54.00146 27,54.00146 C26.4477153,54.00146 26,54.4491753 26,55.00146 L26,57.00146 L24,57.00146 L24,55.00146 C24,54.4491753 23.5522847,54.00146 23,54.00146 C22.4477153,54.00146 22,54.4491753 22,55.00146 L22,57.00146 L20,57.00146 L20,55.00146 C20,54.4491753 19.5522847,54.00146 19,54.00146 C18.4477153,54.00146 18,54.4491753 18,55.00146 L18,57.00146 L16,57.00146 L16,55.00146 C16,54.4491753 15.5522847,54.00146 15,54.00146 C14.4477153,54.00146 14,54.4491753 14,55.00146 L14,57.00146 L12,57.00146 L12,55.00146 C12,54.4491753 11.5522847,54.00146 11,54.00146 C10.4477153,54.00146 10,54.4491753 10,55.00146 L10,57.00146 L8,57.00146 L8,55.00146 C8,54.4491753 7.55228475,54.00146 7,54.00146 C6.44771525,54.00146 6,54.4491753 6,55.00146 L6,57.00146 L4,57.00146 L4,55.00146 C4,54.4491753 3.55228475,54.00146 3,54.00146 C2.44771525,54.00146 2,54.4491753 2,55.00146 L2,57.00146 L1,57.00146 C0.447943738,57.0009088 0.00055122983,56.5535163 0,56.00146 L0,52.00146 C0.00055122983,51.4494037 0.447943738,51.0020112 1,51.00146 L2.9967,51.00146 L3,51.002 L3.0025,51.00151 L30.9975,51.00151 L31,51.002 L31.0033,51.00151 L33,51.00151 C33.5520563,51.0020612 33.9994488,51.4494537 34,52.00151 L34,56.00146 Z"/></g></g>
</svg>