<svg xmlns="http://www.w3.org/2000/svg" xmlns:xlink="http://www.w3.org/1999/xlink" viewBox="0 0 36 70" version="1.1" x="0px" y="0px"><title>Leisure - Solid - 004 - Chess Piece</title><desc>Created with Sketch.</desc><g stroke="none" stroke-width="1" fill="none" fill-rule="evenodd"><g transform="translate(0.000000, -1.000000)" fill-rule="nonzero" fill="#000000"><path d="M13.05029,3.05029 C14.8185726,1.28154722 17.3962022,0.59063378 19.8120636,1.23784957 C22.2279249,1.88506536 24.1149246,3.77206511 24.7621404,6.18792644 C25.4093562,8.60378777 24.7184428,11.1814174 22.9497,12.9497 C21.1814174,14.7184428 18.6037878,15.4093562 16.1879264,14.7621404 C13.7720651,14.1149246 11.8850654,12.2279249 11.2378496,9.81206356 C10.5906338,7.39620223 11.2815472,4.81857256 13.05029,3.05029 L13.05029,3.05029 Z M14.54829,18.84668 C14.4029,17.91083 14.21278,16.97144 13.98677,16.05103 C16.512799,17.3164186 19.4876767,17.3163297 22.01363,16.05079 C21.78763,16.97126 21.59707,17.91041 21.45163,18.8462 C21.444,18.89539 21.43771,18.94996 21.43008,19.00001 L14.56982,19.00001 C14.56226,18.95013 14.55591,18.89569 14.54834,18.84668 L14.54829,18.84668 Z M9,24 L9,22 C9.00071619,21.4480122 9.44801218,21.0007162 10,21 L26,21 C26.5519878,21.0007162 26.9992838,21.4480122 27,22 L27,24 C26.9992838,24.5519878 26.5519878,24.9992838 26,25 L10,25 C9.44801218,24.9992838 9.00071619,24.5519878 9,24 Z M14.76,27 L21.24187,27 C21.5219584,29.7656721 22.2493222,32.4675051 23.39556,35 L12.60456,35 C13.7551239,32.4689444 14.4832471,29.7664865 14.76,27 L14.76,27 Z M7,38 C7.00071619,37.4480122 7.44801218,37.0007162 8,37 L28,37 C28.5519878,37.0007162 28.9992838,37.4480122 29,38 L29,40 C28.9992838,40.5519878 28.5519878,40.9992838 28,41 L8,41 C7.44801218,40.9992838 7.00071619,40.5519878 7,40 L7,38 Z M1.09424,45.9248 C1.31004928,45.4315899 1.71697638,45.0472209 2.22168,44.85986 L7.35107,42.93652 L7.36346,42.92877 C7.57247665,42.9752417 7.78588132,42.9991221 8,43 L28,43 C28.2141187,42.9991221 28.4275233,42.9752417 28.63654,42.92877 L28.64893,42.93652 L33.77832,44.85986 C34.2820623,45.0486416 34.6884635,45.4324753 34.9056857,45.9246229 C35.1229079,46.4167706 35.1326174,46.9756945 34.93262,47.47509 L34.32263,49 L1.67719,49 L1.0669,47.4751 C0.86567476,46.9759575 0.875540307,46.416537 1.09424,45.9248 L1.09424,45.9248 Z M36,56 C35.9992838,56.5519878 35.5519878,56.9992838 35,57 L33,57 L33,55 C33,54.4477153 32.5522847,54 32,54 C31.4477153,54 31,54.4477153 31,55 L31,57 L29,57 L29,55 C29,54.4477153 28.5522847,54 28,54 C27.4477153,54 27,54.4477153 27,55 L27,57 L25,57 L25,55 C25,54.4477153 24.5522847,54 24,54 C23.4477153,54 23,54.4477153 23,55 L23,57 L21,57 L21,55 C21,54.4477153 20.5522847,54 20,54 C19.4477153,54 19,54.4477153 19,55 L19,57 L17,57 L17,55 C17,54.4477153 16.5522847,54 16,54 C15.4477153,54 15,54.4477153 15,55 L15,57 L13,57 L13,55 C13,54.4477153 12.5522847,54 12,54 C11.4477153,54 11,54.4477153 11,55 L11,57 L9,57 L9,55 C9,54.4477153 8.55228475,54 8,54 C7.44771525,54 7,54.4477153 7,55 L7,57 L5,57 L5,55 C5,54.4477153 4.55228475,54 4,54 C3.44771525,54 3,54.4477153 3,55 L3,57 L1,57 C0.448012177,56.9992838 0.000716188507,56.5519878 0,56 L0,52 C0.000791627922,51.448535 0.447375963,51.0015393 0.99884,51.00024 L1.00049,51.00048 L1.003,51 L34.997,51 L34.9995,51.00049 L35.00115,51.00025 C35.552614,51.0015438 35.9992029,51.448535 36,52 L36,56 Z"/></g></g></svg>