<svg xmlns="http://www.w3.org/2000/svg" xmlns:xlink="http://www.w3.org/1999/xlink" viewBox="0 0 34 70" version="1.1" x="0px" y="0px"><title>Leisure - Solid - 008 - Chess Piece</title><desc>Created with Sketch.</desc><g stroke="none" stroke-width="1" fill="none" fill-rule="evenodd"><g fill-rule="nonzero" fill="#000000"><path d="M17,2.22044605e-16 C15.8967686,0.00322381203 15.0032238,0.896768606 15,2 C14.9983389,2.41285864 15.1279059,2.81556695 15.37,3.15 C16.4474688,2.95005002 17.5525312,2.95005002 18.63,3.15 C18.8720941,2.81556695 19.0016611,2.41285864 19,2 C18.9967762,0.896768606 18.1032314,0.00322381203 17,2.22044605e-16 Z M11.8,6.94 C11.78,6.96 11.75,6.98 11.73,7 L11.82,7 L11.8,6.94 Z M22.2,6.94 L22.18,7 L22.27,7 C22.25,6.98 22.22,6.96 22.2,6.94 Z M22.2,6.94 L22.18,7 L22.27,7 C22.25,6.98 22.22,6.96 22.2,6.94 Z M25,15 L9,15 C8.44771525,15 8,15.4477153 8,16 C8,16.5522847 8.44771525,17 9,17 L25,17 C25.5522847,17 26,16.5522847 26,16 C26,15.4477153 25.5522847,15 25,15 Z M12,19 L12,36 L22,36 L22,19 L12,19 Z M25,38 L9,38 C8.44771525,38 8,38.4477153 8,39 C8,39.5522847 8.44771525,40 9,40 L25,40 C25.5522847,40 26,39.5522847 26,39 C26,38.4477153 25.5522847,38 25,38 Z M30.91,44.93 C30.6950327,44.4341433 30.2868364,44.0476212 29.78,43.86 L24.82,42 L9.18,42 L4.22,43.86 C3.7131636,44.0476212 3.30496735,44.4341433 3.09,44.93 C2.87847076,45.4236604 2.87127869,45.9810461 3.07,46.48 L3.68,48 L30.32,48 L30.93,46.48 C31.1287213,45.9810461 31.1215292,45.4236604 30.91,44.93 L30.91,44.93 Z M33,50 L1,50 C0.448399067,50.0016474 0.00164740056,50.4483991 0,51 L0,55 C0.00164740056,55.5516009 0.448399067,55.9983526 1,56 L2,56 L2,54 C2,53.4477153 2.44771525,53 3,53 C3.55228475,53 4,53.4477153 4,54 L4,56 L6,56 L6,54 C6,53.4477153 6.44771525,53 7,53 C7.55228475,53 8,53.4477153 8,54 L8,56 L10,56 L10,54 C10,53.4477153 10.4477153,53 11,53 C11.5522847,53 12,53.4477153 12,54 L12,56 L14,56 L14,54 C14,53.4477153 14.4477153,53 15,53 C15.5522847,53 16,53.4477153 16,54 L16,56 L18,56 L18,54 C18,53.4477153 18.4477153,53 19,53 C19.5522847,53 20,53.4477153 20,54 L20,56 L22,56 L22,54 C22,53.4477153 22.4477153,53 23,53 C23.5522847,53 24,53.4477153 24,54 L24,56 L26,56 L26,54 C26,53.4477153 26.4477153,53 27,53 C27.5522847,53 28,53.4477153 28,54 L28,56 L30,56 L30,54 C30,53.4477153 30.4477153,53 31,53 C31.5522847,53 32,53.4477153 32,54 L32,56 L33,56 C33.5516009,55.9983526 33.9983526,55.5516009 34,55 L34,51 C33.9983526,50.4483991 33.5516009,50.0016474 33,50 L33,50 Z"/><path d="M24.85,5.32 L23.62,9 L23.61,9 L22.28,13 L11.71,13 L9.15,5.32 C9.035675,4.98059769 9.11110332,4.60598535 9.34787185,4.33727584 C9.58464038,4.06856633 9.94677835,3.94658302 10.2978719,4.01727583 C10.6489654,4.08796865 10.935675,4.34059768 11.05,4.68 L11.8,6.94 C11.78,6.96 11.75,6.98 11.73,7 L11.82,7 L11.8,6.94 C14.7841583,4.35334534 19.2158417,4.35334534 22.2,6.94 L22.18,7 L22.27,7 C22.25,6.98 22.22,6.96 22.2,6.94 L22.95,4.68 C23.064325,4.34059767 23.3510346,4.08796863 23.7021281,4.01727581 C24.0532217,3.94658298 24.4153596,4.0685663 24.6521282,4.33727582 C24.8888967,4.60598534 24.964325,4.98059768 24.85,5.32 L24.85,5.32 Z"/><path d="M11.82,7 L11.73,7 C11.75,6.98 11.78,6.96 11.8,6.94 L11.82,7 Z"/><path d="M22.27,7 L22.18,7 L22.2,6.94 C22.22,6.96 22.25,6.98 22.27,7 Z"/></g></g>
</svg>