<svg xmlns="http://www.w3.org/2000/svg" xmlns:xlink="http://www.w3.org/1999/xlink" viewBox="0 0 36 70" version="1.1" x="0px" y="0px"><title>Leisure - Solid - 005 - Chess Piece</title><desc>Created with Sketch.</desc><g stroke="none" stroke-width="1" fill="none" fill-rule="evenodd"><g fill-rule="nonzero" fill="#000000"><path d="M5,0 L7,0 L7,2 C7.00110246,3.10411252 7.89588748,3.99889754 9,4 L11,4 C12.1041125,3.99889754 12.9988975,3.10411252 13,2 L13,0 L15,0 L15,2 C15.0014358,3.1034045 15.8951368,3.99775843 16.99854,4 L19.00147,4 C20.1048693,3.99775293 20.9985642,3.1034006 21,2 L21,0 L23,0 L23,2 C23.0011025,3.10411252 23.8958875,3.99889754 25,4 L27,4 C28.1041125,3.99889754 28.9988975,3.10411252 29,2 L29,0 L31,0 L31,5.87109 C30.9974662,6.95876752 30.5546401,7.99907377 29.77246,8.75488 L28.47705,10 L7.52295,10 L6.228,8.75488 C5.44550733,7.99924984 5.00248398,6.9588701 5,5.87109 L5,0 Z M7,15 L7,13 C7.00071619,12.4480122 7.44801218,12.0007162 8,12 L28,12 C28.5519878,12.0007162 28.9992838,12.4480122 29,13 L29,15 C28.9992838,15.5519878 28.5519878,15.9992838 28,16 L8,16 C7.44801218,15.9992838 7.00071619,15.5519878 7,15 Z M10,18 L26,18 L26,34 L10,34 L10,18 Z M7,37 C7.00071619,36.4480122 7.44801218,36.0007162 8,36 L28,36 C28.5519878,36.0007162 28.9992838,36.4480122 29,37 L29,39 C28.9992838,39.5519878 28.5519878,39.9992838 28,40 L8,40 C7.44801218,39.9992838 7.00071619,39.5519878 7,39 L7,37 Z M1.09424,44.9248 C1.31004928,44.4315899 1.71697638,44.0472209 2.22168,43.85986 L7.35107,41.93652 L7.36346,41.92877 C7.57247665,41.9752417 7.78588132,41.9991221 8,42 L28,42 C28.2141187,41.9991221 28.4275233,41.9752417 28.63654,41.92877 L28.64893,41.93652 L33.77832,43.85937 C34.2819681,44.0484222 34.6882413,44.4323664 34.9054322,44.9245353 C35.1226231,45.4167042 35.1324231,45.9756094 34.93262,46.47509 L34.32263,48 L1.67719,48 L1.0669,46.4751 C0.86567476,45.9759575 0.875540307,45.416537 1.09424,44.9248 L1.09424,44.9248 Z M36,55 C35.9994488,55.5520563 35.5520563,55.9994488 35,56 L33,56 L33,54 C33,53.4477153 32.5522847,53 32,53 C31.4477153,53 31,53.4477153 31,54 L31,56 L29,56 L29,54 C29,53.4477153 28.5522847,53 28,53 C27.4477153,53 27,53.4477153 27,54 L27,56 L25,56 L25,54 C25,53.4477153 24.5522847,53 24,53 C23.4477153,53 23,53.4477153 23,54 L23,56 L21,56 L21,54 C21,53.4477153 20.5522847,53 20,53 C19.4477153,53 19,53.4477153 19,54 L19,56 L17,56 L17,54 C17,53.4477153 16.5522847,53 16,53 C15.4477153,53 15,53.4477153 15,54 L15,56 L13,56 L13,54 C13,53.4477153 12.5522847,53 12,53 C11.4477153,53 11,53.4477153 11,54 L11,56 L9,56 L9,54 C9,53.4477153 8.55228475,53 8,53 C7.44771525,53 7,53.4477153 7,54 L7,56 L5,56 L5,54 C5,53.4477153 4.55228475,53 4,53 C3.44771525,53 3,53.4477153 3,54 L3,56 L1,56 C0.448012177,55.9992838 0.000716188507,55.5519878 0,55 L0,51 C0.000791627922,50.448535 0.447375963,50.0015393 0.99884,50.00024 L1.00049,50.00048 L1.003,50 L34.997,50 L34.9995,50.00049 L35.00115,50.00025 C35.5526847,50.0013738 35.999373,50.4484645 36,51 L36,55 Z"/></g></g></svg>