<svg xmlns="http://www.w3.org/2000/svg" xmlns:xlink="http://www.w3.org/1999/xlink" viewBox="0 0 38 75" version="1.1" x="0px" y="0px"><title>Leisure - Outline - 006 - Chess Piece</title><desc>Created with Sketch.</desc><g stroke="none" stroke-width="1" fill="none" fill-rule="evenodd"><g transform="translate(0.000000, -1.000000)" fill-rule="nonzero" fill="#000000"><path d="M3,61 L35,61 C36.6561049,60.9981923 37.9981923,59.6561049 38,58 L38,54 C37.9981923,52.3438951 36.6561049,51.0018077 35,51 L34.47736,51 L34.79004,50.21826 C35.1894282,49.2191599 35.1696092,48.1013118 34.735056,47.1169971 C34.3005027,46.1326824 33.4878387,45.3648579 32.48047,44.98681 L29.36847,43.81981 C29.7752696,43.3001918 29.9974667,42.659911 30,42 L30,40 C29.9981923,38.3438951 28.6561049,37.0018077 27,37 L26,37 L26,26 L27,26 C28.6561049,25.9981923 29.9981923,24.6561049 30,23 L30,22 C29.9981923,20.3438951 28.6561049,19.0018077 27,19 L25.82446,19 C27.2107143,17.4905662 27.986145,15.5195756 28,13.47021 C28,10.62255 24.34766,5.69628 21.28418,2.06591 C20.7188949,1.38874542 19.8823331,0.997244977 19.0002339,0.997051889 C18.1181346,0.9968588 17.2814015,1.38799296 16.71582,2.06491 C13.65234,5.69629 10,10.62256 10,13.47021 C10.013855,15.5195756 10.7892857,17.4905662 12.17554,19 L11,19 C9.34389511,19.0018077 8.00180771,20.3438951 8,22 L8,23 C8.00180771,24.6561049 9.34389511,25.9981923 11,26 L12,26 L12,37 L11,37 C9.34389511,37.0018077 8.00180771,38.3438951 8,40 L8,42 C8.00253108,42.6599144 8.22472834,43.3001991 8.63153,43.81982 L5.51953,44.98682 C4.512171,45.364876 3.69951824,46.1327021 3.26497311,47.1170136 C2.83042797,48.101325 2.81061297,49.2191662 3.21,50.21826 L3.52264,51 L3,51 C1.34389511,51.0018077 0.00180771165,52.3438951 0,54 L0,58 C0.00180771165,59.6561049 1.34389511,60.9981923 3,61 Z M12,13.47021 C12.2074092,12.1432155 12.7201201,10.8825082 13.49774,9.78741 C13.9937995,11.4309488 15.0334453,12.8572333 16.44629,13.83251 C16.7437125,14.0326502 17.1255231,14.0582398 17.4469931,13.8995789 C17.7684631,13.740918 17.9803868,13.422292 18.0024325,13.0644789 C18.0244782,12.7066657 17.8532716,12.3644341 17.55371,12.16751 C16.0813084,11.0314825 15.1654243,9.31967567 15.03735,7.46438 C15.93792,6.20223 17.00128,4.82852 18.24511,3.35403 C18.4346458,3.13463485 18.7102964,3.00861171 19.000224,3.00880374 C19.2901516,3.00899578 19.565635,3.13538397 19.75488,3.35503 C23.665,7.98926 26,11.77051 26,13.47021 C25.9651947,15.7733422 24.7021294,17.8822545 22.68811,19 L15.31189,19 C13.2978706,17.8822545 12.0348053,15.7733422 12,13.47021 Z M10,23 L10,22 C10.0005512,21.4479437 10.4479437,21.0005512 11,21 L27,21 C27.5520563,21.0005512 27.9994488,21.4479437 28,22 L28,23 C27.9994488,23.5520563 27.5520563,23.9994488 27,24 L11,24 C10.4479437,23.9994488 10.0005512,23.5520563 10,23 Z M14,26 L24,26 L24,37 L14,37 L14,26 Z M10,40 C10.0005512,39.4479437 10.4479437,39.0005512 11,39 L27,39 C27.5520563,39.0005512 27.9994488,39.4479437 28,40 L28,42 C27.9994488,42.5520563 27.5520563,42.9994488 27,43 L11,43 C10.4479437,42.9994488 10.0005512,42.5520563 10,42 L10,40 Z M5.06738,49.4751 C4.8676986,48.9755591 4.87767529,48.4166392 5.09505735,47.9245429 C5.31243941,47.4324466 5.71889594,47.0486704 6.22265,46.85987 L11.18231,45 L26.81769,45 L31.77735,46.85986 C32.2811041,47.0486604 32.6875606,47.4324366 32.9049426,47.9245329 C33.1223247,48.4166292 33.1323014,48.9755491 32.93262,49.47509 L32.32263,51 L5.67737,51 L5.06738,49.4751 Z M2,54 C2.00055123,53.4479437 2.44794374,53.0005512 3,53 L4.9967,53 L5,53.00049 L5.0025,53 L32.9975,53 L33,53.00049 L33.0033,53 L35,53 C35.5520563,53.0005512 35.9994488,53.4479437 36,54 L36,58 C35.9994488,58.5520563 35.5520563,58.9994488 35,59 L34,59 L34,57 C34,56.4477153 33.5522847,56 33,56 C32.4477153,56 32,56.4477153 32,57 L32,59 L30,59 L30,57 C30,56.4477153 29.5522847,56 29,56 C28.4477153,56 28,56.4477153 28,57 L28,59 L26,59 L26,57 C26,56.4477153 25.5522847,56 25,56 C24.4477153,56 24,56.4477153 24,57 L24,59 L22,59 L22,57 C22,56.4477153 21.5522847,56 21,56 C20.4477153,56 20,56.4477153 20,57 L20,59 L18,59 L18,57 C18,56.4477153 17.5522847,56 17,56 C16.4477153,56 16,56.4477153 16,57 L16,59 L14,59 L14,57 C14,56.4477153 13.5522847,56 13,56 C12.4477153,56 12,56.4477153 12,57 L12,59 L10,59 L10,57 C10,56.4477153 9.55228475,56 9,56 C8.44771525,56 8,56.4477153 8,57 L8,59 L6,59 L6,57 C6,56.4477153 5.55228475,56 5,56 C4.44771525,56 4,56.4477153 4,57 L4,59 L3,59 C2.44794374,58.9994488 2.00055123,58.5520563 2,58 L2,54 Z"/></g></g>
</svg>