<svg xmlns="http://www.w3.org/2000/svg" xmlns:xlink="http://www.w3.org/1999/xlink" viewBox="0 0 38 75" version="1.1" x="0px" y="0px"><title>Leisure - Outline - 007 - Chess Piece</title><desc>Created with Sketch.</desc><g stroke="none" stroke-width="1" fill="none" fill-rule="evenodd"><g fill-rule="nonzero" fill="#000000"><path d="M3,60 L35,60 C36.6561049,59.9981923 37.9981923,58.6561049 38,57 L38,53 C37.9981923,51.3438951 36.6561049,50.0018077 35,50 L34.47736,50 L34.79004,49.21826 C35.1894282,48.2191599 35.1696092,47.1013118 34.735056,46.1169971 C34.3005027,45.1326824 33.4878387,44.3648579 32.48047,43.98681 L29.36847,42.81981 C29.7752696,42.3001918 29.9974667,41.659911 30,41 C29.9981923,39.3438951 28.6561049,38.0018077 27,38 L26,38 L26,21 L27,21 C28.6568542,21 30,19.6568542 30,18 C30,16.3431458 28.6568542,15 27,15 L26.34149,15 L27.76367,11.70752 C28.0954681,10.9408235 28.0744073,10.0671976 27.70605,9.31738 C27.2948775,8.49820713 26.5453602,7.90037825 25.65527,7.68164 L20,6.22516 L20,4 L21,4 C21.5522847,4 22,3.55228475 22,3 C22,2.44771525 21.5522847,2 21,2 L20,2 L20,1 C20,0.44771525 19.5522847,3.38176876e-17 19,0 C18.4477153,-3.38176876e-17 18,0.44771525 18,1 L18,2 L17,2 C16.4477153,2 16,2.44771525 16,3 C16,3.55228475 16.4477153,4 17,4 L18,4 L18,6.22516 L12.34473,7.68164 C11.4546398,7.90037825 10.7051225,8.49820713 10.29395,9.31738 C9.92559271,10.0671976 9.90453189,10.9408235 10.23633,11.70752 L11.65851,15 L11,15 C9.34314575,15 8,16.3431458 8,18 C8,19.6568542 9.34314575,21 11,21 L12,21 L12,38 L11,38 C9.34389511,38.0018077 8.00180771,39.3438951 8,41 C8.00253108,41.6599144 8.22472834,42.3001991 8.63153,42.81982 L5.51953,43.98682 C4.512171,44.364876 3.69951824,45.1327021 3.26497311,46.1170136 C2.83042797,47.101325 2.81061297,48.2191662 3.21,49.21826 L3.52264,50 L3,50 C1.34389511,50.0018077 0.00180771165,51.3438951 0,53 L0,57 C0.00180771165,58.6561049 1.34389511,59.9981923 3,60 Z M12.07227,10.91406 C11.9702739,10.6845935 11.9767276,10.4214505 12.08985,10.19726 C12.2445204,9.90379223 12.5194475,9.69233792 12.84278,9.61816 L19,8.03271 L25.15723,9.61816 C25.4805625,9.69233792 25.7554896,9.90379223 25.91016,10.19726 C26.0232824,10.4214505 26.0297361,10.6845935 25.92774,10.91406 L25.92774,10.91455 L24.16309,15 L13.83691,15 L12.07227,10.91406 Z M10,18 C10.0005512,17.4479437 10.4479437,17.0005512 11,17 L27,17 C27.5522847,17 28,17.4477153 28,18 C28,18.5522847 27.5522847,19 27,19 L11,19 C10.4479437,18.9994488 10.0005512,18.5520563 10,18 L10,18 Z M14,21 L24,21 L24,38 L14,38 L14,21 Z M11,40 L27,40 C27.5522847,40 28,40.4477153 28,41 C28,41.5522847 27.5522847,42 27,42 L11,42 C10.4477153,42 10,41.5522847 10,41 C10,40.4477153 10.4477153,40 11,40 Z M5.06738,48.4751 C4.8676986,47.9755591 4.87767529,47.4166392 5.09505735,46.9245429 C5.31243941,46.4324466 5.71889594,46.0486704 6.22265,45.85987 L11.18231,44 L26.81769,44 L31.77735,45.85986 C32.2811041,46.0486604 32.6875606,46.4324366 32.9049426,46.9245329 C33.1223247,47.4166292 33.1323014,47.9755491 32.93262,48.47509 L32.32263,50 L5.67737,50 L5.06738,48.4751 Z M2,53 C2.00055123,52.4479437 2.44794374,52.0005512 3,52 L4.9967,52 L5,52.00049 L5.0025,52 L32.9975,52 L33,52.00049 L33.0033,52 L35,52 C35.5520563,52.0005512 35.9994488,52.4479437 36,53 L36,57 C35.9994488,57.5520563 35.5520563,57.9994488 35,58 L34,58 L34,56 C34,55.4477153 33.5522847,55 33,55 C32.4477153,55 32,55.4477153 32,56 L32,58 L30,58 L30,56 C30,55.4477153 29.5522847,55 29,55 C28.4477153,55 28,55.4477153 28,56 L28,58 L26,58 L26,56 C26,55.4477153 25.5522847,55 25,55 C24.4477153,55 24,55.4477153 24,56 L24,58 L22,58 L22,56 C22,55.4477153 21.5522847,55 21,55 C20.4477153,55 20,55.4477153 20,56 L20,58 L18,58 L18,56 C18,55.4477153 17.5522847,55 17,55 C16.4477153,55 16,55.4477153 16,56 L16,58 L14,58 L14,56 C14,55.4477153 13.5522847,55 13,55 C12.4477153,55 12,55.4477153 12,56 L12,58 L10,58 L10,56 C10,55.4477153 9.55228475,55 9,55 C8.44771525,55 8,55.4477153 8,56 L8,58 L6,58 L6,56 C6,55.4477153 5.55228475,55 5,55 C4.44771525,55 4,55.4477153 4,56 L4,58 L3,58 C2.44794374,57.9994488 2.00055123,57.5520563 2,57 L2,53 Z"/></g></g>
</svg>