<svg xmlns="http://www.w3.org/2000/svg" xmlns:xlink="http://www.w3.org/1999/xlink" viewBox="0 0 38 75" version="1.1" x="0px" y="0px"><title>Leisure - Outline - 036 - Chess Piece</title><desc>Created with Sketch.</desc><g stroke="none" stroke-width="1" fill="none" fill-rule="evenodd"><g fill-rule="nonzero" fill="#000000"><path d="M35,50.00146 L34.47717,50.00146 L34.79004,49.21923 C35.1893768,48.2201898 35.1695283,47.1024191 34.7349739,46.1181865 C34.3004195,45.133954 33.4877839,44.3662114 32.48047,43.98823 L29.36847,42.82123 C29.7752612,42.3016227 29.9974578,41.6613573 30,41.00146 L30,39.00146 C29.9973006,38.6451456 29.9304783,38.2922273 29.80273,37.95959 C31.1208323,37.7911189 32.2663879,36.972346 32.85253,35.77978 C33.4914262,34.4997444 33.3242446,32.9645602 32.4248,31.85205 L21.4502,17.83887 C21.2374764,17.5835733 21.2059298,17.2229214 21.3711,16.93457 C21.5734041,16.581635 21.968732,16.3857127 22.3721,16.43848 C25.3594,16.73243 27.52444,17.25537 28.63187,17.95166 L30.96587,19.4209 C31.7506256,19.9139397 32.7694847,19.813943 33.44341,19.17774 L34.89165,17.81153 C36.384,16.3950645 36.4627194,14.0428611 35.06841,12.52979 L31.97661,9.19479 C30.4997563,7.6051874 28.7305507,6.31492221 26.76567,5.3945 L24.14067,4.20407 L24.14067,1.94727 C24.1234216,0.856859756 23.2271763,-0.0140360266 22.13672,-1.55667037e-15 L19.16992,-1.55667037e-15 C18.0882513,-0.00815039587 17.0841938,0.560679723 16.53515,1.49268 C16.1203391,2.22916409 15.8013518,3.01564168 15.58594,3.833 C13.89649,4.019 8.19629,4.9746 5.42188,9.52148 C3.25123,13.07763 3.45527,17.87448 6.00888,23.77448 C6.00836,23.85217 6,23.92175 6,24 C5.999969,24.1329459 6.02653354,24.2645548 6.07813,24.38708 L6.07813,34.15771 C6.09799452,35.6551277 6.98917337,37.003471 8.359,37.60864 C8.12668736,38.0363549 8.00338374,38.5147386 8,39.00146 L8,41.00146 C8.00253108,41.6613744 8.22472834,42.3016591 8.63153,42.82128 L5.51953,43.98828 C4.51230334,44.3662108 3.69972607,45.1338624 3.26518131,46.1179905 C2.83063655,47.1021185 2.81074651,48.2197836 3.21,49.21875 L3.523,50.00146 L3,50.00146 C1.34389511,50.0032677 0.00180771165,51.3453551 -3.55271368e-15,53.00146 L-3.55271368e-15,57.00146 C0.00174114827,58.65768 1.34378038,59.9999608 3,60.002 L35,60.002 C36.6562001,59.9999608 37.9982313,58.6577104 38,57.00151 L38,53.00151 C37.9982198,51.3453856 36.6561244,50.0032678 35,50.00146 Z M11,42.00146 C10.4479437,42.0009088 10.0005512,41.5535163 10,41.00146 L10,39.00146 C10.0005512,38.4494037 10.4479437,38.0020112 11,38.00146 L27,38.00146 C27.5520563,38.0020112 27.9994488,38.4494037 28,39.00146 L28,41.00146 C27.9994488,41.5535163 27.5520563,42.0009088 27,42.00146 L11,42.00146 Z M31.05469,34.9043 C30.7044682,35.5937246 29.9888376,36.0201368 29.21582,36 L22.56091,36 C22.59857,35.958 22.64019,35.92065 22.67675,35.87744 C23.8175896,34.532496 24.3074419,32.7529887 24.01562,31.01367 L22.60681,22.5592 L30.85058,33.08545 C31.2735714,33.5974908 31.3536678,34.3112403 31.05469,34.9043 L31.05469,34.9043 Z M7.123,10.57275 C8.38478748,8.68381035 10.2577867,7.28624606 12.4278,6.6145 C9.21370984,9.97345468 7.11802235,14.2448686 6.42841,18.84241 C5.60577,15.49261 5.82111,12.71368 7.123,10.57275 Z M8.02046,23.46692 C8.18916,13.75928 12.77803,8.7608 15.1338,6.83838 C15.1218,7.09538 15.11323,7.35738 15.11323,7.63138 C15.11323,8.18366475 15.5609453,8.63138 16.11323,8.63138 C16.6655147,8.63138 17.11323,8.18366475 17.11323,7.63138 C17.042335,5.84557205 17.4410131,4.07239676 18.26948,2.4888 C18.4610462,2.17701694 18.8041039,1.99078953 19.16992,2 L22.14062,1.94727 L22.14062,4.2041 C22.148155,4.95635104 22.5868075,5.63749464 23.26855,5.95556 L25.9121,7.20312 C27.6454427,8.01484624 29.2063792,9.15255706 30.50976,10.55419 L33.60156,13.88964 C34.2533336,14.5963588 34.2163546,15.6956109 33.51856,16.35693 L32.0293,17.72754 L29.6963,16.25879 C28.30763,15.38579 25.90919,14.77686 22.56739,14.44824 C21.368618,14.3232322 20.2100052,14.9217217 19.61817,15.97168 C19.065009,16.9613465 19.1669664,18.1875517 19.87598,19.07227 L20.03138,19.2707 L22.043,31.34277 C22.2375041,32.5022135 21.9109354,33.6884349 21.15042,34.58496 C20.3643847,35.5035696 19.2087943,36.0226136 18,36 L10.08984,36 C9.02680675,36.0434337 8.1281397,35.2204537 8.07812,34.15771 L8.07812,23.73682 C8.07161852,23.6446039 8.05222663,23.5537539 8.02051,23.46692 L8.02046,23.46692 Z M5.06738,48.47607 C4.86776521,47.9765922 4.87777929,47.4177595 5.0951611,46.9257541 C5.31254292,46.4337487 5.71896175,46.0500588 6.22265,45.86132 L11.18231,44.00146 L26.81769,44.00146 L31.77735,45.86132 C32.2811041,46.0501204 32.6875606,46.4338966 32.9049426,46.9259929 C33.1223247,47.4180892 33.1323014,47.9770091 32.93262,48.47655 L32.32282,50.00145 L5.67725,50.00145 L5.06738,48.47607 Z M36,57.00146 C35.9994488,57.5535163 35.5520563,58.0009088 35,58.00146 L34,58.00146 L34,56.00146 C34,55.4491753 33.5522847,55.00146 33,55.00146 C32.4477153,55.00146 32,55.4491753 32,56.00146 L32,58.00146 L30,58.00146 L30,56.00146 C30,55.4491753 29.5522847,55.00146 29,55.00146 C28.4477153,55.00146 28,55.4491753 28,56.00146 L28,58.00146 L26,58.00146 L26,56.00146 C26,55.4491753 25.5522847,55.00146 25,55.00146 C24.4477153,55.00146 24,55.4491753 24,56.00146 L24,58.00146 L22,58.00146 L22,56.00146 C22,55.4491753 21.5522847,55.00146 21,55.00146 C20.4477153,55.00146 20,55.4491753 20,56.00146 L20,58.00146 L18,58.00146 L18,56.00146 C18,55.4491753 17.5522847,55.00146 17,55.00146 C16.4477153,55.00146 16,55.4491753 16,56.00146 L16,58.00146 L14,58.00146 L14,56.00146 C14,55.4491753 13.5522847,55.00146 13,55.00146 C12.4477153,55.00146 12,55.4491753 12,56.00146 L12,58.00146 L10,58.00146 L10,56.00146 C10,55.4491753 9.55228475,55.00146 9,55.00146 C8.44771525,55.00146 8,55.4491753 8,56.00146 L8,58.00146 L6,58.00146 L6,56.00146 C6,55.4491753 5.55228475,55.00146 5,55.00146 C4.44771525,55.00146 4,55.4491753 4,56.00146 L4,58.00146 L3,58.00146 C2.44794374,58.0009088 2.00055123,57.5535163 2,57.00146 L2,53.00146 C2.00055123,52.4494037 2.44794374,52.0020112 3,52.00146 L4.9967,52.00146 L5,52.002 L5.0025,52.00151 L32.9975,52.00151 L33,52.002 L33.0033,52.00151 L35,52.00151 C35.5520563,52.0020612 35.9994488,52.4494537 36,53.00151 L36,57.00146 Z"/></g></g>
</svg>