<svg xmlns="http://www.w3.org/2000/svg" xmlns:xlink="http://www.w3.org/1999/xlink" viewBox="0 0 40 75" version="1.1" x="0px" y="0px"><title>Leisure - Outline - 004 - Chess Piece</title><desc>Created with Sketch.</desc><g stroke="none" stroke-width="1" fill="none" fill-rule="evenodd"><g transform="translate(0.000000, -1.000000)" fill-rule="nonzero" fill="#000000"><path d="M3,61 L37,61 C38.6561049,60.9981923 39.9981923,59.6561049 40,58 L40,54 C39.9962119,52.8694412 39.3556303,51.8375195 38.34412,51.33252 L38.78955,50.21826 C39.189313,49.2192503 39.1697345,48.1013118 38.7352361,47.1169124 C38.3007377,46.1325131 37.4879652,45.364678 36.48047,44.98681 L32.57135,43.52105 C32.8491102,43.0621065 32.9972481,42.5364441 33,42 L33,40 C32.9981923,38.3438951 31.6561049,37.0018077 30,37 L27.47192,37 C27.4751285,36.85025 27.4439779,36.7017562 27.38086,36.56592 C26.2531339,34.1808771 25.5341718,31.6232993 25.254,29 L28,29 C29.6561049,28.9981923 30.9981923,27.6561049 31,26 L31,24 C30.9981923,22.3438951 29.6561049,21.0018077 28,21 L25.45563,21 C25.7276256,19.2979125 26.144569,17.62218 26.70191,15.99109 C29.9343986,12.38468 29.7333851,6.86692708 26.2470484,3.5052859 C22.7607116,0.143644714 17.2392984,0.143644714 13.7529616,3.5052859 C10.2666249,6.86692708 10.0656114,12.38468 13.2981,15.99109 C13.8554815,17.6221632 14.2724029,19.2979012 14.54431,21 L12,21 C10.3438951,21.0018077 9.00180771,22.3438951 9,24 L9,26 C9.00180771,27.6561049 10.3438951,28.9981923 12,29 L14.74884,29 C14.470916,31.6240723 13.750846,34.1821753 12.61914,36.56592 C12.5560404,36.7017603 12.5249103,36.8502545 12.52814,37 L10,37 C8.34389511,37.0018077 7.00180771,38.3438951 7,40 L7,42 C7.00277051,42.536434 7.15092957,43.0620805 7.42871,43.521 L3.51953,44.98682 C2.5120898,45.3647715 1.69935335,46.1325864 1.26479233,47.1169338 C0.83023132,48.1012812 0.810481028,49.2191766 1.21,50.21826 L1.65574,51.33264 C0.64432419,51.8376609 0.00380912185,52.8695163 0,54 L0,58 C0.00180771165,59.6561049 1.34389511,60.9981923 3,61 Z M38,58 C37.9992838,58.5519878 37.5519878,58.9992838 37,59 L35,59 L35,57 C35,56.4477153 34.5522847,56 34,56 C33.4477153,56 33,56.4477153 33,57 L33,59 L31,59 L31,57 C31,56.4477153 30.5522847,56 30,56 C29.4477153,56 29,56.4477153 29,57 L29,59 L27,59 L27,57 C27,56.4477153 26.5522847,56 26,56 C25.4477153,56 25,56.4477153 25,57 L25,59 L23,59 L23,57 C23,56.4477153 22.5522847,56 22,56 C21.4477153,56 21,56.4477153 21,57 L21,59 L19,59 L19,57 C19,56.4477153 18.5522847,56 18,56 C17.4477153,56 17,56.4477153 17,57 L17,59 L15,59 L15,57 C15,56.4477153 14.5522847,56 14,56 C13.4477153,56 13,56.4477153 13,57 L13,59 L11,59 L11,57 C11,56.4477153 10.5522847,56 10,56 C9.44771525,56 9,56.4477153 9,57 L9,59 L7,59 L7,57 C7,56.4477153 6.55228475,56 6,56 C5.44771525,56 5,56.4477153 5,57 L5,59 L3,59 C2.44801218,58.9992838 2.00071619,58.5519878 2,58 L2,54 C2.00079163,53.448535 2.44737596,53.0015393 2.99884,53.00024 L3.00049,53.00048 L3.003,53 L36.997,53 L36.9995,53.00049 L37.00115,53.00025 C37.552614,53.0015438 37.9992029,53.448535 38,54 L38,58 Z M15.05029,5.05029 C16.8185726,3.28154722 19.3962022,2.59063378 21.8120636,3.23784957 C24.2279249,3.88506536 26.1149246,5.77206511 26.7621404,8.18792644 C27.4093562,10.6037878 26.7184428,13.1814174 24.9497,14.9497 C23.1814174,16.7184428 20.6037878,17.4093562 18.1879264,16.7621404 C15.7720651,16.1149246 13.8850654,14.2279249 13.2378496,11.8120636 C12.5906338,9.39620223 13.2815472,6.81857256 15.05029,5.05029 L15.05029,5.05029 Z M16.54829,20.84668 C16.4029,19.91083 16.21278,18.97144 15.98677,18.05103 C18.512799,19.3164186 21.4876767,19.3163297 24.01363,18.05079 C23.78763,18.97126 23.59707,19.91041 23.45163,20.8462 C23.444,20.89539 23.43771,20.94996 23.43008,21.00001 L16.56982,21.00001 C16.56226,20.95013 16.55591,20.89569 16.54834,20.84668 L16.54829,20.84668 Z M11,26 L11,24 C11.0007162,23.4480122 11.4480122,23.0007162 12,23 L28,23 C28.5519878,23.0007162 28.9992838,23.4480122 29,24 L29,26 C28.9992838,26.5519878 28.5519878,26.9992838 28,27 L12,27 C11.4480122,26.9992838 11.0007162,26.5519878 11,26 Z M16.76,29 L23.24187,29 C23.5219584,31.7656721 24.2493222,34.4675051 25.39556,37 L14.60456,37 C15.7551239,34.4689444 16.4832471,31.7664865 16.76,29 L16.76,29 Z M9,40 C9.00071619,39.4480122 9.44801218,39.0007162 10,39 L30,39 C30.5519878,39.0007162 30.9992838,39.4480122 31,40 L31,42 C30.9992838,42.5519878 30.5519878,42.9992838 30,43 L10,43 C9.44801218,42.9992838 9.00071619,42.5519878 9,42 L9,40 Z M3.09424,47.9248 C3.31004928,47.4315899 3.71697638,47.0472209 4.22168,46.85986 L9.35107,44.93652 L9.36346,44.92877 C9.57247665,44.9752417 9.78588132,44.9991221 10,45 L30,45 C30.2141187,44.9991221 30.4275233,44.9752417 30.63654,44.92877 L30.64893,44.93652 L35.77832,46.85986 C36.2820623,47.0486416 36.6884635,47.4324753 36.9056857,47.9246229 C37.1229079,48.4167706 37.1326174,48.9756945 36.93262,49.47509 L36.32263,51 L3.67719,51 L3.0669,49.4751 C2.86567476,48.9759575 2.87554031,48.416537 3.09424,47.9248 L3.09424,47.9248 Z"/></g></g>
</svg>