<svg xmlns="http://www.w3.org/2000/svg" xmlns:xlink="http://www.w3.org/1999/xlink" viewBox="0 0 38 75" version="1.1" x="0px" y="0px"><title>Leisure - Outline - 008 - Chess Piece</title><desc>Created with Sketch.</desc><g stroke="none" stroke-width="1" fill="none" fill-rule="evenodd"><g transform="translate(0.000000, -1.000000)" fill-rule="nonzero" fill="#000000"><path d="M3,61 L35,61 C36.6561049,60.9981923 37.9981923,59.6561049 38,58 L38,54 C37.9981923,52.3438951 36.6561049,51.0018077 35,51 L34.47736,51 L34.79004,50.21826 C35.1894282,49.2191599 35.1696092,48.1013118 34.735056,47.1169971 C34.3005027,46.1326824 33.4878387,45.3648579 32.48047,44.98681 L29.36847,43.81981 C29.7752696,43.3001918 29.9974667,42.659911 30,42 C29.9981923,40.3438951 28.6561049,39.0018077 27,39 L26,39 L26,22 L27,22 C28.6568542,22 30,20.6568542 30,19 C30,17.3431458 28.6568542,16 27,16 L26.387,16 L27.77573,11.83386 L27.78513,11.80566 L28.94822,8.3164 C29.0624991,7.97729025 28.9867944,7.60296051 28.7497223,7.33490835 C28.5126502,7.06685618 28.1503774,6.94597442 27.7998439,7.01795667 C27.4493105,7.08993892 27.1639922,7.34380389 27.05174,7.68359 L26.48063,9.39685 C25.4279534,8.20078188 24.1043097,7.27401909 22.6203,6.694 C23.4098579,5.01356316 22.939276,3.01072725 21.4839822,1.85773573 C20.0286884,0.70474421 17.9713116,0.70474421 16.5160178,1.85773573 C15.060724,3.01072725 14.5901421,5.01356316 15.3797,6.694 C13.8956861,7.2740077 12.5720356,8.20076019 11.51935,9.39682 L10.94824,7.68356 C10.8359878,7.34377389 10.5506695,7.08990892 10.2001361,7.01792667 C9.84960261,6.94594442 9.48732984,7.06682618 9.25025773,7.33487835 C9.01318563,7.60293051 8.93748085,7.97726025 9.05176,8.31637 L10.21485,11.80563 L10.22425,11.83383 L11.613,16 L11,16 C9.34314575,16 8,17.3431458 8,19 C8,20.6568542 9.34314575,22 11,22 L12,22 L12,39 L11,39 C9.34389511,39.0018077 8.00180771,40.3438951 8,42 C8.00253108,42.6599144 8.22472834,43.3001991 8.63153,43.81982 L5.51953,44.98682 C4.512171,45.364876 3.69951824,46.1327021 3.26497311,47.1170136 C2.83042797,48.101325 2.81061297,49.2191662 3.21,50.21826 L3.52264,51 L3,51 C1.34389511,51.0018077 0.00180771165,52.3438951 0,54 L0,58 C0.00180771165,59.6561049 1.34389511,60.9981923 3,61 Z M19,8 C20.9397884,8.00560491 22.8113433,8.71644572 24.26575,10 L13.73425,10 C15.1886567,8.71644572 17.0602116,8.00560491 19,8 Z M17,5 C17,3.8954305 17.8954305,3 19,3 C20.1045695,3 21,3.8954305 21,5 C21.0011657,5.41222872 20.8734432,5.81451111 20.6347,6.15057 C19.5541631,5.9498049 18.4458869,5.9498049 17.36535,6.15057 C17.1266036,5.81450982 16.9988649,5.41223172 17,5 L17,5 Z M12.387,12 L25.613,12 L24.2796,16 L13.7204,16 L12.387,12 Z M10,19 C10.0005512,18.4479437 10.4479437,18.0005512 11,18 L12.99689,18 L13,18.00049 L13.003,18 L24.997,18 L25,18.00049 L25.00311,18 L27,18 C27.5522847,18 28,18.4477153 28,19 C28,19.5522847 27.5522847,20 27,20 L11,20 C10.4479437,19.9994488 10.0005512,19.5520563 10,19 L10,19 Z M14,22 L24,22 L24,39 L14,39 L14,22 Z M11,41 L27,41 C27.5522847,41 28,41.4477153 28,42 C28,42.5522847 27.5522847,43 27,43 L11,43 C10.4477153,43 10,42.5522847 10,42 C10,41.4477153 10.4477153,41 11,41 Z M5.06738,49.4751 C4.8676986,48.9755591 4.87767529,48.4166392 5.09505735,47.9245429 C5.31243941,47.4324466 5.71889594,47.0486704 6.22265,46.85987 L11.18231,45 L26.81769,45 L31.77735,46.85986 C32.2811041,47.0486604 32.6875606,47.4324366 32.9049426,47.9245329 C33.1223247,48.4166292 33.1323014,48.9755491 32.93262,49.47509 L32.32263,51 L5.67737,51 L5.06738,49.4751 Z M2,54 C2.00055123,53.4479437 2.44794374,53.0005512 3,53 L4.9967,53 L5,53.00049 L5.0025,53 L32.9975,53 L33,53.00049 L33.0033,53 L35,53 C35.5520563,53.0005512 35.9994488,53.4479437 36,54 L36,58 C35.9994488,58.5520563 35.5520563,58.9994488 35,59 L34,59 L34,57 C34,56.4477153 33.5522847,56 33,56 C32.4477153,56 32,56.4477153 32,57 L32,59 L30,59 L30,57 C30,56.4477153 29.5522847,56 29,56 C28.4477153,56 28,56.4477153 28,57 L28,59 L26,59 L26,57 C26,56.4477153 25.5522847,56 25,56 C24.4477153,56 24,56.4477153 24,57 L24,59 L22,59 L22,57 C22,56.4477153 21.5522847,56 21,56 C20.4477153,56 20,56.4477153 20,57 L20,59 L18,59 L18,57 C18,56.4477153 17.5522847,56 17,56 C16.4477153,56 16,56.4477153 16,57 L16,59 L14,59 L14,57 C14,56.4477153 13.5522847,56 13,56 C12.4477153,56 12,56.4477153 12,57 L12,59 L10,59 L10,57 C10,56.4477153 9.55228475,56 9,56 C8.44771525,56 8,56.4477153 8,57 L8,59 L6,59 L6,57 C6,56.4477153 5.55228475,56 5,56 C4.44771525,56 4,56.4477153 4,57 L4,59 L3,59 C2.44794374,58.9994488 2.00055123,58.5520563 2,58 L2,54 Z"/></g></g>
</svg>