<svg xmlns="http://www.w3.org/2000/svg" xmlns:xlink="http://www.w3.org/1999/xlink" viewBox="0 0 40 75" version="1.1" x="0px" y="0px"><title>Leisure - Outline - 005 - Chess Piece</title><desc>Created with Sketch.</desc><g stroke="none" stroke-width="1" fill="none" fill-rule="evenodd"><g fill-rule="nonzero" fill="#000000"><path d="M3,60 L37,60 C38.6561049,59.9981923 39.9981923,58.6561049 40,57 L40,53 C39.9962147,51.8695205 39.3557117,50.8376595 38.3443,50.33264 L38.79,49.21826 C39.1893882,48.2191599 39.1695692,47.1013118 38.735016,46.1169971 C38.3004627,45.1326824 37.4877987,44.3648579 36.48043,43.98681 L32.57131,42.52105 C32.8490842,42.0621105 32.9972361,41.5364479 33,41 L33,39 C32.9981923,37.3438951 31.6561049,36.0018077 30,36 L30,20 C31.6561049,19.9981923 32.9981923,18.6561049 33,17 L33,15 C32.997119,14.2843972 32.7362209,13.5938446 32.2652,13.05511 L33.15869,12.19628 C34.3321582,11.0629112 34.9964475,9.50251271 35,7.87109 L35,2 C34.9988975,0.895887477 34.1041125,0.00110245966 33,0 L31,0 C29.8958875,0.00110245966 29.0011025,0.895887477 29,2 L29,4 L27,4 L27,2 C26.9988975,0.895887477 26.1041125,0.00110245966 25,0 L23,0 C21.8958875,0.00110245966 21.0011025,0.895887477 21,2 L21,4 L19,4 L19,2 C18.9988975,0.895887477 18.1041125,0.00110245966 17,0 L15,0 C13.8958875,0.00110245966 13.0011025,0.895887477 13,2 L13,4 L11,4 L11,2 C10.9988975,0.895887477 10.1041125,0.00110245966 9,0 L7,0 C5.89588748,0.00110245966 5.00110246,0.895887477 5,2 L5,7.87109 C5.00350769,9.50262323 5.66800555,11.0631 6.8418,12.19629 L7.73487,13.05499 C7.26380846,13.5937527 7.00288501,14.2843493 7,15 L7,17 C7.00180771,18.6561049 8.34389511,19.9981923 10,20 L10,36 C8.34389511,36.0018077 7.00180771,37.3438951 7,39 L7,41 C7.00277051,41.536434 7.15092957,42.0620805 7.42871,42.521 L3.51953,43.98682 C2.5120898,44.3647715 1.69935335,45.1325864 1.26479233,46.1169338 C0.83023132,47.1012812 0.810481028,48.2191766 1.21,49.21826 L1.65574,50.33264 C0.64432419,50.8376609 0.00380912185,51.8695163 0,53 L0,57 C0.00180771165,58.6561049 1.34389511,59.9981923 3,60 Z M38,57 C37.9994488,57.5520563 37.5520563,57.9994488 37,58 L35,58 L35,56 C35,55.4477153 34.5522847,55 34,55 C33.4477153,55 33,55.4477153 33,56 L33,58 L31,58 L31,56 C31,55.4477153 30.5522847,55 30,55 C29.4477153,55 29,55.4477153 29,56 L29,58 L27,58 L27,56 C27,55.4477153 26.5522847,55 26,55 C25.4477153,55 25,55.4477153 25,56 L25,58 L23,58 L23,56 C23,55.4477153 22.5522847,55 22,55 C21.4477153,55 21,55.4477153 21,56 L21,58 L19,58 L19,56 C19,55.4477153 18.5522847,55 18,55 C17.4477153,55 17,55.4477153 17,56 L17,58 L15,58 L15,56 C15,55.4477153 14.5522847,55 14,55 C13.4477153,55 13,55.4477153 13,56 L13,58 L11,58 L11,56 C11,55.4477153 10.5522847,55 10,55 C9.44771525,55 9,55.4477153 9,56 L9,58 L7,58 L7,56 C7,55.4477153 6.55228475,55 6,55 C5.44771525,55 5,55.4477153 5,56 L5,58 L3,58 C2.44801218,57.9992838 2.00071619,57.5519878 2,57 L2,53 C2.00079163,52.448535 2.44737596,52.0015393 2.99884,52.00024 L3.00049,52.00048 L3.003,52 L36.997,52 L36.9995,52.00049 L37.00115,52.00025 C37.5526847,52.0013738 37.999373,52.4484645 38,53 L38,57 Z M7,2 L9,2 L9,4 C9.00110246,5.10411252 9.89588748,5.99889754 11,6 L13,6 C14.1041125,5.99889754 14.9988975,5.10411252 15,4 L15,2 L17,2 L17,4 C17.0014358,5.1034045 17.8951368,5.99775843 18.99854,6 L21.00147,6 C22.1048693,5.99775293 22.9985642,5.1034006 23,4 L23,2 L25,2 L25,4 C25.0011025,5.10411252 25.8958875,5.99889754 27,6 L29,6 C30.1041125,5.99889754 30.9988975,5.10411252 31,4 L31,2 L33,2 L33,7.87109 C32.9974662,8.95876752 32.5546401,9.99907377 31.77246,10.75488 L30.47705,12 L9.52295,12 L8.228,10.75488 C7.44550733,9.99924984 7.00248398,8.9588701 7,7.87109 L7,2 Z M9,17 L9,15 C9.00071619,14.4480122 9.44801218,14.0007162 10,14 L30,14 C30.5519878,14.0007162 30.9992838,14.4480122 31,15 L31,17 C30.9992838,17.5519878 30.5519878,17.9992838 30,18 L10,18 C9.44801218,17.9992838 9.00071619,17.5519878 9,17 Z M12,20 L28,20 L28,36 L12,36 L12,20 Z M9,39 C9.00071619,38.4480122 9.44801218,38.0007162 10,38 L30,38 C30.5519878,38.0007162 30.9992838,38.4480122 31,39 L31,41 C30.9992838,41.5519878 30.5519878,41.9992838 30,42 L10,42 C9.44801218,41.9992838 9.00071619,41.5519878 9,41 L9,39 Z M3.09424,46.9248 C3.31004928,46.4315899 3.71697638,46.0472209 4.22168,45.85986 L9.35107,43.93652 L9.36346,43.92877 C9.57247665,43.9752417 9.78588132,43.9991221 10,44 L30,44 C30.2141187,43.9991221 30.4275233,43.9752417 30.63654,43.92877 L30.64893,43.93652 L35.77832,45.85937 C36.2819681,46.0484222 36.6882413,46.4323664 36.9054322,46.9245353 C37.1226231,47.4167042 37.1324231,47.9756094 36.93262,48.47509 L36.32263,50 L3.67719,50 L3.0669,48.4751 C2.86567476,47.9759575 2.87554031,47.416537 3.09424,46.9248 L3.09424,46.9248 Z"/></g></g>
</svg>